<svg xmlns="http://www.w3.org/2000/svg" width="112" height="40" fill="none"><path fill="#5A5A5A" d="M110.391 33.943c-.351 0-.609-.254-.609-.65 0-.395.254-.645.609-.645s.61.246.61.645c0 .4-.255.65-.61.65Zm0-1.219c-.327 0-.525.235-.525.574 0 .338.21.572.525.572.315 0 .525-.225.525-.572 0-.348-.222-.574-.525-.574Zm.307.96c-.045.013-.097.013-.141.013l-.061-.121a.728.728 0 0 0-.125-.19h-.105v.307h-.133v-.775c.093-.008.177-.016.246-.016.141 0 .258.06.258.226a.215.215 0 0 1-.149.21c.044.04.089.1.125.177l.085.17Zm-.323-.669c-.032 0-.073 0-.105.004v.258h.089c.089 0 .145-.04.145-.137 0-.085-.052-.125-.133-.125m-49.794.876h-.9l-1.15-3.563c-.06-.182-.109-.4-.141-.642h-.04a3.54 3.54 0 0 1-.15.65l-1.11 3.555h-.912c-.5-1.634-.92-3.426-1.23-5.186.25-.04.62-.06.871-.06l.77 3.555c.041.202.082.472.102.69h.048a4.46 4.46 0 0 1 .15-.71l1.101-3.515h.86l1.11 3.523c.06.19.12.452.161.702h.04c.029-.25.07-.48.122-.71l.75-3.535c.25 0 .573.02.803.06a43.266 43.266 0 0 1-1.25 5.186m3.317-6.118c-.351 0-.52-.258-.52-.553 0-.295.169-.57.532-.57s.52.271.52.57c0 .299-.169.553-.532.553Zm-.44.892h.892v5.226h-.892v-5.226Zm6.05 5.225v-3.696c0-.513-.222-.82-.872-.82-.5 0-.9.142-1.304.412v4.105h-.892v-5.186c.243-.04.622-.061.892-.061v.513h.049c.52-.453 1-.59 1.541-.59.791 0 1.481.38 1.481 1.594v3.737h-.9l.005-.008Zm6.804.103c-.392 0-.791-.101-.993-.63h-.04c-.533.5-1.013.63-1.542.63-1.142 0-1.832-.812-1.832-2.555 0-2.062.912-2.873 2.292-2.873.31 0 .702.068 1.013.181v-2.232c.238-.04.63-.068.9-.068v6.32c0 .25.069.339.299.339h.58v.27c0 .452-.298.622-.681.622m-1.102-4.415c-.242-.13-.642-.222-.973-.222-.88 0-1.372.452-1.372 1.973 0 1.522.392 1.852 1.15 1.852.42 0 .812-.088 1.191-.35v-3.257l.004.004Zm4.153 4.41c-.513 0-1.114-.11-1.522-.331.069-.29.129-.55.23-.811.412.21.98.318 1.473.318.581 0 .811-.25.811-.682 0-1.04-2.425-.702-2.425-2.324 0-1.062.892-1.602 1.961-1.602.331 0 .831.04 1.223.149-.012.25-.069.573-.13.831-.37-.12-.9-.19-1.331-.19-.52 0-.803.223-.803.703 0 .912 2.446.61 2.446 2.385 0 1.081-.9 1.554-1.934 1.554Zm5.205-.001c-1.081 0-1.521-.54-1.521-1.69v-2.854h-.622v-.783h.622v-1.122c.242-.068.642-.141.9-.161v1.283h1.324c0 .25-.02.52-.06.783h-1.264v2.926c0 .622.19.783.702.783.242 0 .561-.069.763-.161.06.23.109.532.129.79-.27.13-.69.21-.973.21m9.788-2.558H91.29v.08c0 1.095.33 1.623 1.44 1.623.48 0 1.034-.141 1.345-.33.088.237.181.572.221.839-.399.222-1.081.339-1.582.339-1.561 0-2.393-.872-2.393-2.644 0-1.933.92-2.784 2.143-2.784 1.223 0 1.921.783 1.921 2.122 0 .222-.012.513-.028.751m-3.055-.622h2.183c.008-.08.008-.25.008-.318 0-.86-.383-1.231-1.053-1.231-.67 0-1.114.452-1.142 1.554m8.559 1.941c0 .25.06.339.299.339h.581v.27c0 .452-.303.622-.69.622-.388 0-.771-.11-.993-.622h-.028c-.46.432-.904.622-1.421.622-1.162 0-1.873-.771-1.873-2.555 0-1.961.9-2.873 2.293-2.873.31 0 .601.048.932.149.141-.08.36-.121.57-.121.12 0 .23.012.33.028v4.141Zm-.9-3.217a2.168 2.168 0 0 0-.892-.181c-.892 0-1.372.452-1.372 1.961 0 1.51.391 1.852 1.15 1.852.432 0 .783-.12 1.114-.338V29.54Zm8.794 4.35v-3.696c0-.493-.222-.82-.831-.82-.472 0-.791.15-1.142.432v4.085h-.9v-3.697c0-.5-.23-.82-.82-.82-.411 0-.782.15-1.142.412v4.105h-.892v-5.186c.239-.04.622-.061.892-.061v.513h.049c.48-.432.851-.59 1.38-.59.529 0 .981.19 1.211.703.549-.521 1.021-.703 1.602-.703.819 0 1.493.4 1.493 1.582v3.745h-.9v-.003Zm-18.318-4.338a1.887 1.887 0 0 0-.452-.06c-.36 0-.71.068-1.162.512v3.887h-.892v-5.186c.242-.04.621-.06.892-.06v.66h.048c.573-.681.932-.742 1.251-.742.11 0 .279.008.4.049 0 .298-.04.642-.09.94m-44.062 1.619c0 1.033-.206 1.776-.621 2.236-.416.46-.993.686-1.732.686a3 3 0 0 1-.863-.117 2.863 2.863 0 0 1-.787-.392v-7.11c.06-.013.15-.029.262-.041a2.83 2.83 0 0 1 .279-.02v2.72h.032a2.88 2.88 0 0 1 .755-.432c.238-.085.508-.129.815-.129.27 0 .52.044.75.137.226.093.424.238.59.444.165.202.294.472.387.8.093.33.137.734.137 1.218m-.58.08a4.89 4.89 0 0 0-.098-1.065 1.83 1.83 0 0 0-.274-.666.993.993 0 0 0-.436-.343 1.662 1.662 0 0 0-.585-.096c-.509 0-1.005.177-1.49.528v3.689c.162.109.34.185.53.23.189.044.383.065.58.065.27 0 .517-.037.735-.11a1.23 1.23 0 0 0 .557-.37c.153-.178.27-.416.355-.72.085-.302.13-.685.13-1.145m6.065-2.542c-.117.355-.222.674-.323.968-.097.29-.214.626-.343.997-.13.371-.262.759-.404 1.154a113.69 113.69 0 0 1-.82 2.224 9.167 9.167 0 0 1-.423.952c-.137.27-.286.493-.444.666a1.556 1.556 0 0 1-.504.392 1.39 1.39 0 0 1-.597.125c-.121 0-.255-.012-.404-.036a1.474 1.474 0 0 1-.452-.158 1.9 1.9 0 0 1 .141-.496c.21.109.46.161.755.161a.987.987 0 0 0 .54-.161c.162-.11.311-.323.449-.642l.387-.876c-.161-.407-.33-.835-.5-1.279a48.39 48.39 0 0 1-.493-1.344 58.413 58.413 0 0 1-.88-2.652c.07-.02.154-.036.259-.044.105-.012.194-.016.27-.016l1.437 4.217c.077.21.133.42.174.63h.032a4.35 4.35 0 0 1 .173-.654l1.437-4.197c.069 0 .157.004.27.016.114.008.198.024.259.045m-9.5-24.112v15.941h1.07V17.82l2.708-2.732 4.41 5.44H50.9l-5.025-6.203 4.871-4.935h-1.42l-6.901 7.143V4.586h-1.07Zm12.922 4.802h1.07v11.14h-1.07V9.387Zm-.13-4.366h1.333v1.46h-1.332v-1.46Zm5.554 6.476c.743-1.311 2.353-2.373 4.383-2.373 2.817 0 4.456 1.921 4.456 4.585v6.816h-1.07v-6.618c0-2.293-1.287-3.802-3.54-3.802-2.251 0-3.865 1.659-3.865 3.975v6.445h-1.07V14.28c0-1.635.706-2.777.706-2.777m21.196 2.929c-.153-2.248-1.44-4.326-3.995-4.326-2.204 0-3.911 1.857-4.105 4.326h8.104-.004Zm-9.238.545v-.044c0-3.233 2.272-5.812 5.287-5.812s5.11 2.535 5.11 5.832c0 .198 0 .262-.02.436h-9.239c.198 2.773 2.184 4.39 4.367 4.39 1.723 0 2.906-.766 3.822-1.747l.742.654c-1.134 1.223-2.47 2.099-4.608 2.099-2.926 0-5.46-2.337-5.46-5.808Zm13.851 2.689V5.829h1.07v3.56h3.91v.984h-3.91v7.184c0 1.594.94 2.163 2.228 2.163.544 0 1.004-.11 1.638-.396v1.005a4.09 4.09 0 0 1-1.812.396c-1.727 0-3.124-.94-3.124-3.06Zm8.572-8.278h1.07v11.14h-1.07V9.387Zm-.133-4.366h1.332v1.46h-1.332v-1.46Zm4.447 9.979v-.044c0-3.124 2.49-5.832 5.678-5.832 2.095 0 3.407.96 4.456 2.055l-.763.782c-.96-.98-2.054-1.836-3.713-1.836-2.534 0-4.5 2.119-4.5 4.783v.044c0 2.688 2.03 4.827 4.589 4.827 1.574 0 2.797-.808 3.733-1.857l.743.654c-1.134 1.287-2.49 2.208-4.541 2.208-3.212 0-5.678-2.664-5.678-5.788m11.866 4.658v.085h-.182v.807h-.097v-.807h-.181v-.085h.46Zm.234 0 .153.678h.004l.154-.678h.153v.892h-.089v-.815h-.004l-.185.815h-.065l-.186-.815v.815h-.088v-.892h.153Z"/><path fill="url(#a)" d="M7.797 11.004c-2.752.852-4.14 2.204-5.5 7.543-1.183 5.045-3.83 13.475-1.11 14.706 1.55 1.041 3.773.464 5.553.125 1.86-.42 3.414-.843 5.545-1.138-3.172-.343-5.28-.871-6.59-2.885C3.83 26.772 5 20.706 6.387 17.46c1.417-3.462 4.113-4.431 7.043-4.67 2.268-.128 4.415.388 5.973 1.212-1.364-2.055-4.94-3.164-8.205-3.281-1.219-.045-2.397.048-3.398.282"/><path fill="url(#b)" d="M23.396 4.374c-1.86.42-3.415.843-5.546 1.138 3.177.343 5.28.871 6.59 2.885 1.865 2.583.699 8.649-.693 11.89-1.417 3.462-4.113 4.427-7.039 4.665-.387.02-.766.024-1.146.012-1.836-.069-3.54-.54-4.827-1.223 1.364 2.058 4.94 3.164 8.201 3.281 1.223.045 2.401-.048 3.402-.282 2.753-.856 4.14-2.204 5.501-7.543 1.183-5.04 3.83-13.476 1.11-14.706-.598-.4-1.292-.561-2.026-.59-1.17-.044-2.434.259-3.531.464"/><path fill="url(#c)" d="M.69 4.995C-.351 6.545.226 8.768.565 10.548c.42 1.86.843 3.414 1.138 5.541.343-3.172.872-5.279 2.885-6.59 2.583-1.865 8.65-.698 11.89.69 3.462 1.416 4.427 4.112 4.67 7.042.128 2.264-.388 4.415-1.212 5.97 2.826-1.873 3.859-7.927 3.003-11.604-.852-2.752-2.204-4.14-7.543-5.5-3.293-.763-8.031-2.164-11.264-2.28C2.413 3.751 1.118 4.05.69 4.994Z"/><path fill="url(#d)" d="M7.195 26.146c.852 2.752 2.204 4.14 7.543 5.5 5.045 1.183 13.472 3.83 14.707 1.11 1.041-1.55.464-3.773.125-5.553-.42-1.86-.844-3.418-1.138-5.54-.343 3.171-.872 5.278-2.886 6.586-2.583 1.864-8.648.698-11.89-.69-3.462-1.417-4.426-4.113-4.665-7.039-.129-2.268.388-4.415 1.211-5.973C7.377 16.424 6.344 22.473 7.2 26.15"/><path fill="url(#e)" d="M7.797 11.004c-2.752.852-4.14 2.204-5.5 7.543-1.183 5.045-3.83 13.475-1.11 14.706 1.55 1.041 3.773.464 5.553.125 1.86-.42 3.414-.843 5.545-1.138-3.172-.343-5.28-.871-6.59-2.885C3.83 26.772 5 20.706 6.387 17.46c1.417-3.462 4.113-4.431 7.043-4.67 2.268-.128 4.415.388 5.973 1.212-1.364-2.055-4.94-3.164-8.205-3.281-1.219-.045-2.397.048-3.398.282"/><path fill="url(#f)" d="M23.396 4.374c-1.86.42-3.415.843-5.546 1.138 3.177.343 5.28.871 6.59 2.885 1.865 2.583.699 8.649-.693 11.89-1.417 3.462-4.113 4.427-7.039 4.665-.387.02-.766.024-1.146.012-1.836-.069-3.54-.54-4.827-1.223 1.364 2.058 4.94 3.164 8.201 3.281 1.223.045 2.401-.048 3.402-.282 2.753-.856 4.14-2.204 5.501-7.543 1.183-5.04 3.83-13.476 1.11-14.706-.598-.4-1.292-.561-2.026-.59-1.17-.044-2.434.259-3.531.464"/><path fill="url(#g)" d="M.69 4.995C-.351 6.545.226 8.768.565 10.548c.42 1.86.843 3.414 1.138 5.541.343-3.172.872-5.279 2.885-6.59 2.583-1.865 8.65-.698 11.89.69 3.462 1.416 4.427 4.112 4.67 7.042.128 2.264-.388 4.415-1.212 5.97 2.826-1.873 3.859-7.927 3.003-11.604-.852-2.752-2.204-4.14-7.543-5.5-3.293-.763-8.031-2.164-11.264-2.28C2.413 3.751 1.118 4.05.69 4.994Z"/><path fill="url(#h)" d="M7.195 26.146c.852 2.752 2.204 4.14 7.543 5.5 5.045 1.183 13.472 3.83 14.707 1.11 1.041-1.55.464-3.773.125-5.553-.42-1.86-.844-3.418-1.138-5.54-.343 3.171-.872 5.278-2.886 6.586-2.583 1.864-8.648.698-11.89-.69-3.462-1.417-4.426-4.113-4.665-7.039-.129-2.268.388-4.415 1.211-5.973C7.377 16.424 6.344 22.473 7.2 26.15"/><defs><linearGradient id="a" x1="0" x2="19.4" y1="22.28" y2="22.28" gradientUnits="userSpaceOnUse"><stop stop-color="#40AEC8"/><stop offset=".01" stop-color="#40AEC8"/><stop offset=".5" stop-color="#0097B7"/><stop offset=".99" stop-color="#107D82"/><stop offset="1" stop-color="#107D82"/></linearGradient><linearGradient id="b" x1="10.735" x2="30.135" y1="15.472" y2="15.472" gradientUnits="userSpaceOnUse"><stop stop-color="#EF6723"/><stop offset="1" stop-color="#F49020"/></linearGradient><linearGradient id="c" x1=".097" x2="23.23" y1="13.506" y2="13.506" gradientUnits="userSpaceOnUse"><stop stop-color="#8CC242"/><stop offset=".97" stop-color="#4A8865"/><stop offset="1" stop-color="#488767"/></linearGradient><linearGradient id="d" x1="6.905" x2="30.038" y1="24.245" y2="24.245" gradientUnits="userSpaceOnUse"><stop stop-color="#3D3992"/><stop offset=".51" stop-color="#A33894"/><stop offset="1" stop-color="#D72429"/></linearGradient><linearGradient id="e" x1="0" x2="19.4" y1="22.28" y2="22.28" gradientUnits="userSpaceOnUse"><stop stop-color="#40AEC8"/><stop offset=".01" stop-color="#40AEC8"/><stop offset=".5" stop-color="#0097B7"/><stop offset=".99" stop-color="#107D82"/><stop offset="1" stop-color="#107D82"/></linearGradient><linearGradient id="f" x1="10.735" x2="30.135" y1="15.472" y2="15.472" gradientUnits="userSpaceOnUse"><stop stop-color="#EF6723"/><stop offset="1" stop-color="#F49020"/></linearGradient><linearGradient id="g" x1=".097" x2="23.23" y1="13.506" y2="13.506" gradientUnits="userSpaceOnUse"><stop stop-color="#8CC242"/><stop offset=".97" stop-color="#4A8865"/><stop offset="1" stop-color="#488767"/></linearGradient><linearGradient id="h" x1="6.908" x2="33.321" y1="14.541" y2="21.532" gradientUnits="userSpaceOnUse"><stop stop-color="#D73765"/><stop offset="1" stop-color="#5B38E2"/></linearGradient></defs></svg>